<svg width="45" height="33" viewBox="0 0 45 33" fill="none" xmlns="http://www.w3.org/2000/svg">
<rect width="45" height="33" rx="5.25" fill="#3B3B3B"/>
<path d="M6.26335 26.0213C6.26335 25.6275 6.34402 25.2787 6.50535 24.975C6.67143 24.6713 6.89445 24.4364 7.17441 24.2704C7.45912 24.0995 7.77467 24.0141 8.12106 24.0141C8.37729 24.0141 8.62878 24.0711 8.87553 24.1849C9.12702 24.2941 9.32631 24.4412 9.47341 24.6262V22.7329H10.2919V28H9.47341V27.4092C9.34055 27.599 9.15549 27.7556 8.91824 27.879C8.68573 28.0024 8.41763 28.0641 8.11394 28.0641C7.77229 28.0641 7.45912 27.9786 7.17441 27.8078C6.89445 27.6323 6.67143 27.3903 6.50535 27.0818C6.34402 26.7686 6.26335 26.4151 6.26335 26.0213ZM9.47341 26.0355C9.47341 25.7651 9.41647 25.5302 9.30259 25.3309C9.19345 25.1316 9.04873 24.9797 8.86841 24.8754C8.6881 24.771 8.49355 24.7188 8.28476 24.7188C8.07598 24.7188 7.88143 24.771 7.70112 24.8754C7.5208 24.975 7.37371 25.1245 7.25982 25.3238C7.15069 25.5183 7.09612 25.7508 7.09612 26.0213C7.09612 26.2918 7.15069 26.529 7.25982 26.7331C7.37371 26.9371 7.5208 27.0937 7.70112 27.2028C7.88618 27.3072 8.08073 27.3594 8.28476 27.3594C8.49355 27.3594 8.6881 27.3072 8.86841 27.2028C9.04873 27.0984 9.19345 26.9466 9.30259 26.7473C9.41647 26.5433 9.47341 26.306 9.47341 26.0355ZM11.0872 26.0213C11.0872 25.6275 11.1679 25.2787 11.3292 24.975C11.4953 24.6713 11.7183 24.4364 11.9983 24.2704C12.283 24.0995 12.5962 24.0141 12.9378 24.0141C13.2462 24.0141 13.5143 24.0758 13.7421 24.1992C13.9746 24.3178 14.1597 24.4673 14.2973 24.6476V24.0782H15.1158V28H14.2973V27.4164C14.1597 27.6014 13.9722 27.7556 13.735 27.879C13.4977 28.0024 13.2273 28.0641 12.9236 28.0641C12.5867 28.0641 12.2782 27.9786 11.9983 27.8078C11.7183 27.6323 11.4953 27.3903 11.3292 27.0818C11.1679 26.7686 11.0872 26.4151 11.0872 26.0213ZM14.2973 26.0355C14.2973 25.7651 14.2403 25.5302 14.1265 25.3309C14.0173 25.1316 13.8726 24.9797 13.6923 24.8754C13.512 24.771 13.3174 24.7188 13.1086 24.7188C12.8999 24.7188 12.7053 24.771 12.525 24.8754C12.3447 24.975 12.1976 25.1245 12.0837 25.3238C11.9746 25.5183 11.92 25.7508 11.92 26.0213C11.92 26.2918 11.9746 26.529 12.0837 26.7331C12.1976 26.9371 12.3447 27.0937 12.525 27.2028C12.7101 27.3072 12.9046 27.3594 13.1086 27.3594C13.3174 27.3594 13.512 27.3072 13.6923 27.2028C13.8726 27.0984 14.0173 26.9466 14.1265 26.7473C14.2403 26.5433 14.2973 26.306 14.2973 26.0355ZM17.1282 24.7401V26.911C17.1282 27.0581 17.1614 27.1649 17.2279 27.2313C17.299 27.293 17.4177 27.3238 17.5837 27.3238H18.082V28H17.4414C17.076 28 16.7961 27.9146 16.6015 27.7438C16.407 27.5729 16.3097 27.2954 16.3097 26.911V24.7401H15.847V24.0782H16.3097V23.1031H17.1282V24.0782H18.082V24.7401H17.1282ZM18.5594 26.0213C18.5594 25.6275 18.64 25.2787 18.8014 24.975C18.9674 24.6713 19.1905 24.4364 19.4704 24.2704C19.7551 24.0995 20.0683 24.0141 20.41 24.0141C20.7184 24.0141 20.9865 24.0758 21.2142 24.1992C21.4468 24.3178 21.6318 24.4673 21.7694 24.6476V24.0782H22.588V28H21.7694V27.4164C21.6318 27.6014 21.4444 27.7556 21.2071 27.879C20.9699 28.0024 20.6994 28.0641 20.3957 28.0641C20.0588 28.0641 19.7504 27.9786 19.4704 27.8078C19.1905 27.6323 18.9674 27.3903 18.8014 27.0818C18.64 26.7686 18.5594 26.4151 18.5594 26.0213ZM21.7694 26.0355C21.7694 25.7651 21.7125 25.5302 21.5986 25.3309C21.4895 25.1316 21.3447 24.9797 21.1644 24.8754C20.9841 24.771 20.7896 24.7188 20.5808 24.7188C20.372 24.7188 20.1774 24.771 19.9971 24.8754C19.8168 24.975 19.6697 25.1245 19.5558 25.3238C19.4467 25.5183 19.3921 25.7508 19.3921 26.0213C19.3921 26.2918 19.4467 26.529 19.5558 26.7331C19.6697 26.9371 19.8168 27.0937 19.9971 27.2028C20.1822 27.3072 20.3767 27.3594 20.5808 27.3594C20.7896 27.3594 20.9841 27.3072 21.1644 27.2028C21.3447 27.0984 21.4895 26.9466 21.5986 26.7473C21.7125 26.5433 21.7694 26.306 21.7694 26.0355Z" fill="white"/>
<path d="M24.4651 24.6547C24.6027 24.4744 24.7902 24.3225 25.0274 24.1992C25.2647 24.0758 25.5328 24.0141 25.8317 24.0141C26.1734 24.0141 26.4842 24.0995 26.7641 24.2704C27.0488 24.4364 27.2718 24.6713 27.4332 24.975C27.5945 25.2787 27.6752 25.6275 27.6752 26.0213C27.6752 26.4151 27.5945 26.7686 27.4332 27.0818C27.2718 27.3903 27.0488 27.6323 26.7641 27.8078C26.4842 27.9786 26.1734 28.0641 25.8317 28.0641C25.5328 28.0641 25.267 28.0047 25.0345 27.8861C24.802 27.7627 24.6122 27.6109 24.4651 27.4306V29.8648H23.6537V24.0782H24.4651V24.6547ZM26.8495 26.0213C26.8495 25.7508 26.7926 25.5183 26.6787 25.3238C26.5696 25.1245 26.4225 24.975 26.2374 24.8754C26.0571 24.771 25.8626 24.7188 25.6538 24.7188C25.4497 24.7188 25.2552 24.771 25.0701 24.8754C24.8898 24.9797 24.7427 25.1316 24.6288 25.3309C24.5197 25.5302 24.4651 25.7651 24.4651 26.0355C24.4651 26.306 24.5197 26.5433 24.6288 26.7473C24.7427 26.9466 24.8898 27.0984 25.0701 27.2028C25.2552 27.3072 25.4497 27.3594 25.6538 27.3594C25.8626 27.3594 26.0571 27.3072 26.2374 27.2028C26.4225 27.0937 26.5696 26.9371 26.6787 26.7331C26.7926 26.529 26.8495 26.2918 26.8495 26.0213ZM28.8904 23.5586C28.7433 23.5586 28.6199 23.5088 28.5203 23.4091C28.4206 23.3095 28.3708 23.1861 28.3708 23.039C28.3708 22.8919 28.4206 22.7685 28.5203 22.6689C28.6199 22.5692 28.7433 22.5194 28.8904 22.5194C29.0328 22.5194 29.1538 22.5692 29.2534 22.6689C29.3531 22.7685 29.4029 22.8919 29.4029 23.039C29.4029 23.1861 29.3531 23.3095 29.2534 23.4091C29.1538 23.5088 29.0328 23.5586 28.8904 23.5586ZM29.289 24.0782V28H28.4776V24.0782H29.289ZM32.333 24.0141C32.6414 24.0141 32.9167 24.0782 33.1587 24.2063C33.4054 24.3344 33.5976 24.5242 33.7352 24.7757C33.8728 25.0272 33.9416 25.3309 33.9416 25.6868V28H33.1373V25.8078C33.1373 25.4566 33.0495 25.1885 32.874 25.0035C32.6984 24.8137 32.4588 24.7188 32.1551 24.7188C31.8514 24.7188 31.6094 24.8137 31.4291 25.0035C31.2535 25.1885 31.1657 25.4566 31.1657 25.8078V28H30.3543V24.0782H31.1657V24.5266C31.2986 24.3653 31.467 24.2395 31.6711 24.1494C31.8799 24.0592 32.1005 24.0141 32.333 24.0141ZM38.571 25.943C38.571 26.0901 38.5615 26.223 38.5425 26.3416H35.546C35.5697 26.6548 35.686 26.9063 35.8948 27.0961C36.1036 27.2859 36.3598 27.3808 36.6635 27.3808C37.1 27.3808 37.4085 27.1981 37.5888 26.8327H38.4643C38.3456 27.1933 38.1297 27.4899 37.8165 27.7224C37.5081 27.9502 37.1238 28.0641 36.6635 28.0641C36.2886 28.0641 35.9517 27.981 35.6528 27.8149C35.3586 27.6441 35.1261 27.4069 34.9553 27.1032C34.7892 26.7947 34.7061 26.4389 34.7061 26.0355C34.7061 25.6322 34.7868 25.2787 34.9481 24.975C35.1142 24.6666 35.3444 24.4293 35.6385 24.2632C35.9375 24.0972 36.2791 24.0141 36.6635 24.0141C37.0336 24.0141 37.3634 24.0948 37.6528 24.2561C37.9423 24.4175 38.1677 24.6452 38.329 24.9394C38.4904 25.2289 38.571 25.5634 38.571 25.943ZM37.724 25.6868C37.7193 25.3878 37.6125 25.1482 37.4037 24.9679C37.1949 24.7876 36.9363 24.6974 36.6279 24.6974C36.3479 24.6974 36.1083 24.7876 35.909 24.9679C35.7097 25.1435 35.5911 25.3831 35.5531 25.6868H37.724Z" fill="#B4DA00"/>
<rect x="14" y="6" width="8" height="6" rx="0.5" fill="white"/>
<rect x="14" y="13" width="8" height="6" rx="0.5" fill="white"/>
<rect x="23" y="13" width="8" height="6" rx="0.5" fill="white"/>
<g clip-path="url(#clip0_612_2)">
<path d="M28.9034 8.57003C29.2317 8.24166 29.4162 7.79629 29.4162 7.33191C29.4162 6.86752 29.2317 6.42215 28.9034 6.09378C28.575 5.76541 28.1296 5.58093 27.6652 5.58093C27.2009 5.58093 26.7555 5.76541 26.4271 6.09378L24.4584 8.06253V10.5417H26.9375L28.9034 8.57003Z" stroke="#B4DA00" stroke-width="0.583333" stroke-linecap="round" stroke-linejoin="round"/>
<path d="M27.6667 7.33331L23.5834 11.4166" stroke="#B4DA00" stroke-width="0.583333" stroke-linecap="round" stroke-linejoin="round"/>
<path d="M28.1042 9.375H25.625" stroke="#B4DA00" stroke-width="0.583333" stroke-linecap="round" stroke-linejoin="round"/>
</g>
<defs>
<clipPath id="clip0_612_2">
<rect width="7" height="7" fill="white" transform="translate(23 5)"/>
</clipPath>
</defs>
</svg>
