<svg xmlns="http://www.w3.org/2000/svg" viewBox="0 0 60 36" width="32" height="20">
  <rect width="60" height="36" fill="#b22234"/>
  <g>
    <rect width="24" height="14.4" fill="#3c3b6e"/>
    <g fill="#fff">
      <circle cx="2.4" cy="2.4" r="0.8"/>
      <circle cx="7.2" cy="2.4" r="0.8"/>
      <circle cx="12" cy="2.4" r="0.8"/>
      <circle cx="16.8" cy="2.4" r="0.8"/>
      <circle cx="21.6" cy="2.4" r="0.8"/>
      <circle cx="4.8" cy="4.8" r="0.8"/>
      <circle cx="9.6" cy="4.8" r="0.8"/>
      <circle cx="14.4" cy="4.8" r="0.8"/>
      <circle cx="19.2" cy="4.8" r="0.8"/>
      <circle cx="2.4" cy="7.2" r="0.8"/>
      <circle cx="7.2" cy="7.2" r="0.8"/>
      <circle cx="12" cy="7.2" r="0.8"/>
      <circle cx="16.8" cy="7.2" r="0.8"/>
      <circle cx="21.6" cy="7.2" r="0.8"/>
      <circle cx="4.8" cy="9.6" r="0.8"/>
      <circle cx="9.6" cy="9.6" r="0.8"/>
      <circle cx="14.4" cy="9.6" r="0.8"/>
      <circle cx="19.2" cy="9.6" r="0.8"/>
      <circle cx="2.4" cy="12" r="0.8"/>
      <circle cx="7.2" cy="12" r="0.8"/>
      <circle cx="12" cy="12" r="0.8"/>
      <circle cx="16.8" cy="12" r="0.8"/>
      <circle cx="21.6" cy="12" r="0.8"/>
    </g>
  </g>
  <g>
    <rect y="3.6" width="60" height="3.6" fill="#fff"/>
    <rect y="10.8" width="60" height="3.6" fill="#fff"/>
    <rect y="18" width="60" height="3.6" fill="#fff"/>
    <rect y="25.2" width="60" height="3.6" fill="#fff"/>
    <rect y="32.4" width="60" height="3.6" fill="#fff"/>
  </g>
</svg>